<mxfile host="app.diagrams.net" agent="Mozilla/5.0 (Macintosh; Intel Mac OS X 10_15_7) AppleWebKit/537.36 (KHTML, like Gecko) Chrome/135.0.0.0 Safari/537.36" version="26.2.14">
  <diagram name="Page-1" id="2MJtWi71yO6iQKbfdX0u">
    <mxGraphModel dx="901" dy="620" grid="1" gridSize="10" guides="1" tooltips="1" connect="1" arrows="1" fold="1" page="0" pageScale="1" pageWidth="827" pageHeight="1169" math="0" shadow="0">
      <root>
        <mxCell id="0" />
        <mxCell id="1" parent="0" />
        <mxCell id="Wjpyw6OpbL5yYt4mKxYh-5" value="" style="rounded=0;whiteSpace=wrap;html=1;fillColor=none;dashed=1;strokeColor=light-dark(#a69b9b, #ededed);" vertex="1" parent="1">
          <mxGeometry x="240" y="150" width="470" height="410" as="geometry" />
        </mxCell>
        <mxCell id="Wjpyw6OpbL5yYt4mKxYh-6" value="Data Warehouse" style="rounded=0;fontSize=19;strokeColor=none;fillColor=default;whiteSpace=wrap;html=1;fontColor=default;verticalAlign=middle;" vertex="1" parent="1">
          <mxGeometry x="400" y="137" width="160" height="20" as="geometry" />
        </mxCell>
        <mxCell id="Wjpyw6OpbL5yYt4mKxYh-2" value="Data Architecture" style="text;whiteSpace=wrap;html=1;fontStyle=1;fontSize=28;" vertex="1" parent="1">
          <mxGeometry x="30" width="470" height="50" as="geometry" />
        </mxCell>
        <mxCell id="Wjpyw6OpbL5yYt4mKxYh-7" value="" style="rounded=0;whiteSpace=wrap;html=1;fillColor=none;dashed=1;strokeColor=light-dark(#a69b9b, #ededed);" vertex="1" parent="1">
          <mxGeometry x="751" y="150" width="120" height="410" as="geometry" />
        </mxCell>
        <mxCell id="Wjpyw6OpbL5yYt4mKxYh-8" value="Consumers" style="rounded=0;whiteSpace=wrap;html=1;fontSize=19;strokeColor=none;fillColor=default;" vertex="1" parent="1">
          <mxGeometry x="759" y="140" width="102" height="20" as="geometry" />
        </mxCell>
        <mxCell id="Wjpyw6OpbL5yYt4mKxYh-13" value="" style="group" vertex="1" connectable="0" parent="1">
          <mxGeometry x="80" y="134" width="166" height="426" as="geometry" />
        </mxCell>
        <mxCell id="Wjpyw6OpbL5yYt4mKxYh-3" value="" style="rounded=0;whiteSpace=wrap;html=1;fillColor=none;dashed=1;strokeColor=light-dark(#a69b9b, #ededed);" vertex="1" parent="Wjpyw6OpbL5yYt4mKxYh-13">
          <mxGeometry y="16" width="120" height="410" as="geometry" />
        </mxCell>
        <mxCell id="Wjpyw6OpbL5yYt4mKxYh-4" value="Sources" style="rounded=0;whiteSpace=wrap;html=1;fontSize=19;strokeColor=none;fillColor=default;" vertex="1" parent="Wjpyw6OpbL5yYt4mKxYh-13">
          <mxGeometry x="20" y="6" width="80" height="20" as="geometry" />
        </mxCell>
        <mxCell id="Wjpyw6OpbL5yYt4mKxYh-26" value="" style="group" vertex="1" connectable="0" parent="Wjpyw6OpbL5yYt4mKxYh-13">
          <mxGeometry x="26" y="116" width="62.16" height="53" as="geometry" />
        </mxCell>
        <mxCell id="Wjpyw6OpbL5yYt4mKxYh-24" value="CRM" style="image;aspect=fixed;html=1;points=[];align=center;fontSize=12;image=img/lib/azure2/general/Folder_Blank.svg;" vertex="1" parent="Wjpyw6OpbL5yYt4mKxYh-26">
          <mxGeometry width="36.97" height="30" as="geometry" />
        </mxCell>
        <mxCell id="Wjpyw6OpbL5yYt4mKxYh-25" value="" style="image;aspect=fixed;html=1;points=[];align=center;fontSize=12;image=img/lib/azure2/general/File.svg;" vertex="1" parent="Wjpyw6OpbL5yYt4mKxYh-26">
          <mxGeometry x="30" y="11" width="17.54" height="21.61" as="geometry" />
        </mxCell>
        <mxCell id="Wjpyw6OpbL5yYt4mKxYh-27" value="" style="group" vertex="1" connectable="0" parent="Wjpyw6OpbL5yYt4mKxYh-13">
          <mxGeometry x="27" y="226" width="62.16" height="53" as="geometry" />
        </mxCell>
        <mxCell id="Wjpyw6OpbL5yYt4mKxYh-28" value="ERP" style="image;aspect=fixed;html=1;points=[];align=center;fontSize=12;image=img/lib/azure2/general/Folder_Blank.svg;" vertex="1" parent="Wjpyw6OpbL5yYt4mKxYh-27">
          <mxGeometry width="36.97" height="30" as="geometry" />
        </mxCell>
        <mxCell id="Wjpyw6OpbL5yYt4mKxYh-29" value="" style="image;aspect=fixed;html=1;points=[];align=center;fontSize=12;image=img/lib/azure2/general/File.svg;" vertex="1" parent="Wjpyw6OpbL5yYt4mKxYh-27">
          <mxGeometry x="30" y="11" width="17.54" height="21.61" as="geometry" />
        </mxCell>
        <mxCell id="Wjpyw6OpbL5yYt4mKxYh-30" value="" style="endArrow=none;html=1;rounded=0;exitX=0.083;exitY=0.659;exitDx=0;exitDy=0;exitPerimeter=0;entryX=0.917;entryY=0.708;entryDx=0;entryDy=0;entryPerimeter=0;" edge="1" parent="Wjpyw6OpbL5yYt4mKxYh-13">
          <mxGeometry width="50" height="50" relative="1" as="geometry">
            <mxPoint x="4.0400000000000365" y="306.19000000000005" as="sourcePoint" />
            <mxPoint x="99.03999999999996" y="306.28" as="targetPoint" />
          </mxGeometry>
        </mxCell>
        <mxCell id="Wjpyw6OpbL5yYt4mKxYh-32" value="&lt;b&gt;Object Type:&lt;/b&gt; CSV Files&lt;div&gt;&lt;br&gt;&lt;div&gt;&lt;b&gt;Interface:&lt;/b&gt; Files in Folder&lt;/div&gt;&lt;/div&gt;" style="text;html=1;align=center;verticalAlign=middle;whiteSpace=wrap;rounded=0;fontSize=9;" vertex="1" parent="Wjpyw6OpbL5yYt4mKxYh-13">
          <mxGeometry y="310" width="110" height="30" as="geometry" />
        </mxCell>
        <mxCell id="Wjpyw6OpbL5yYt4mKxYh-17" value="" style="group;strokeColor=#666666;fillColor=none;gradientColor=#b3b3b3;" vertex="1" connectable="0" parent="1">
          <mxGeometry x="415" y="170" width="130" height="380" as="geometry" />
        </mxCell>
        <mxCell id="Wjpyw6OpbL5yYt4mKxYh-18" value="Silver Layer" style="rounded=0;whiteSpace=wrap;html=1;fillColor=#f5f5f5;strokeColor=#666666;fontSize=18;gradientColor=#b3b3b3;" vertex="1" parent="Wjpyw6OpbL5yYt4mKxYh-17">
          <mxGeometry width="130" height="20" as="geometry" />
        </mxCell>
        <mxCell id="Wjpyw6OpbL5yYt4mKxYh-35" value="" style="html=1;verticalLabelPosition=bottom;align=center;labelBackgroundColor=#ffffff;verticalAlign=top;strokeWidth=2;strokeColor=#666666;shadow=0;dashed=0;shape=mxgraph.ios7.icons.data;fillColor=#f5f5f5;gradientColor=#b3b3b3;" vertex="1" parent="Wjpyw6OpbL5yYt4mKxYh-17">
          <mxGeometry x="39.5" y="120" width="50" height="60" as="geometry" />
        </mxCell>
        <mxCell id="Wjpyw6OpbL5yYt4mKxYh-49" value="&lt;font style=&quot;font-size: 11px;&quot;&gt;Cleaned, Standard Data&lt;/font&gt;" style="text;html=1;align=center;verticalAlign=middle;whiteSpace=wrap;rounded=0;" vertex="1" parent="Wjpyw6OpbL5yYt4mKxYh-17">
          <mxGeometry y="170" width="130" height="30" as="geometry" />
        </mxCell>
        <mxCell id="Wjpyw6OpbL5yYt4mKxYh-51" value="" style="endArrow=none;html=1;rounded=0;exitX=0.083;exitY=0.659;exitDx=0;exitDy=0;exitPerimeter=0;entryX=0.917;entryY=0.708;entryDx=0;entryDy=0;entryPerimeter=0;fillColor=#f5f5f5;gradientColor=#b3b3b3;strokeColor=#666666;" edge="1" parent="Wjpyw6OpbL5yYt4mKxYh-17">
          <mxGeometry width="50" height="50" relative="1" as="geometry">
            <mxPoint x="17.500000000000057" y="198.00000000000006" as="sourcePoint" />
            <mxPoint x="112.5" y="198.08999999999997" as="targetPoint" />
          </mxGeometry>
        </mxCell>
        <mxCell id="Wjpyw6OpbL5yYt4mKxYh-67" value="&lt;b&gt;Object Type: &lt;/b&gt;Tables&lt;div&gt;&lt;br&gt;&lt;div&gt;&lt;b&gt;Load:&lt;/b&gt;&amp;nbsp;&lt;/div&gt;&lt;div&gt;&lt;ul&gt;&lt;li&gt;Batch Processing&lt;/li&gt;&lt;li&gt;Full Load&lt;/li&gt;&lt;li&gt;Truncate and Insert&lt;/li&gt;&lt;/ul&gt;&lt;div&gt;&lt;div&gt;&lt;b&gt;Transformations:&lt;/b&gt;&amp;nbsp;&lt;/div&gt;&lt;div&gt;&lt;ul&gt;&lt;li&gt;Data Cleansing&lt;/li&gt;&lt;li&gt;Data Standardization&lt;/li&gt;&lt;li&gt;Data Normalization&lt;/li&gt;&lt;li&gt;Derived Columns&lt;/li&gt;&lt;li&gt;Data Enrichment&lt;/li&gt;&lt;/ul&gt;&lt;div&gt;&lt;b&gt;Data Model:&lt;/b&gt; None (AS-IS)&lt;/div&gt;&lt;/div&gt;&lt;/div&gt;&lt;/div&gt;&lt;/div&gt;" style="text;html=1;align=left;verticalAlign=middle;whiteSpace=wrap;rounded=0;fontSize=9;" vertex="1" parent="Wjpyw6OpbL5yYt4mKxYh-17">
          <mxGeometry y="251" width="130" height="78" as="geometry" />
        </mxCell>
        <mxCell id="Wjpyw6OpbL5yYt4mKxYh-20" value="" style="group;fillColor=none;gradientColor=#ffd966;strokeColor=#d6b656;" vertex="1" connectable="0" parent="1">
          <mxGeometry x="570" y="190" width="130" height="359" as="geometry" />
        </mxCell>
        <mxCell id="Wjpyw6OpbL5yYt4mKxYh-34" value="" style="html=1;verticalLabelPosition=bottom;align=center;labelBackgroundColor=#ffffff;verticalAlign=top;strokeWidth=2;strokeColor=#d6b656;shadow=0;dashed=0;shape=mxgraph.ios7.icons.data;fillColor=#fff2cc;gradientColor=#ffd966;" vertex="1" parent="Wjpyw6OpbL5yYt4mKxYh-20">
          <mxGeometry x="35.41379310344828" y="102.36842105263159" width="44.82758620689655" height="56.684210526315795" as="geometry" />
        </mxCell>
        <mxCell id="Wjpyw6OpbL5yYt4mKxYh-39" value="" style="shape=singleArrow;whiteSpace=wrap;html=1;fillColor=#dae8fc;gradientColor=#7ea6e0;strokeColor=#6c8ebf;" vertex="1" parent="Wjpyw6OpbL5yYt4mKxYh-20">
          <mxGeometry x="-26.89655172413793" y="127.53947368421053" width="26.89655172413793" height="28.342105263157897" as="geometry" />
        </mxCell>
        <mxCell id="Wjpyw6OpbL5yYt4mKxYh-48" value="&lt;font style=&quot;font-size: 11px;&quot;&gt;Business Ready Data&lt;/font&gt;" style="text;html=1;align=center;verticalAlign=middle;whiteSpace=wrap;rounded=0;" vertex="1" parent="Wjpyw6OpbL5yYt4mKxYh-20">
          <mxGeometry x="2" y="152.32894736842107" width="116.55172413793103" height="28.342105263157897" as="geometry" />
        </mxCell>
        <mxCell id="Wjpyw6OpbL5yYt4mKxYh-52" value="" style="endArrow=none;html=1;rounded=0;exitX=0.083;exitY=0.659;exitDx=0;exitDy=0;exitPerimeter=0;fillColor=#fff2cc;gradientColor=#ffd966;strokeColor=#d6b656;" edge="1" parent="Wjpyw6OpbL5yYt4mKxYh-20">
          <mxGeometry width="50" height="50" relative="1" as="geometry">
            <mxPoint x="15.689655172413843" y="178.89210526315796" as="sourcePoint" />
            <mxPoint x="116.48" y="178.8921052631579" as="targetPoint" />
          </mxGeometry>
        </mxCell>
        <mxCell id="Wjpyw6OpbL5yYt4mKxYh-69" value="&lt;b&gt;Object Type: &lt;/b&gt;Views&lt;div&gt;&lt;br&gt;&lt;div&gt;No&lt;b&gt; Load&lt;/b&gt;&lt;/div&gt;&lt;div&gt;&lt;b&gt;&lt;br&gt;&lt;/b&gt;&lt;/div&gt;&lt;div&gt;&lt;div&gt;&lt;b&gt;Transformations:&lt;/b&gt;&amp;nbsp;&lt;/div&gt;&lt;div&gt;&lt;ul&gt;&lt;li&gt;Data Integrations&lt;/li&gt;&lt;li&gt;&lt;span style=&quot;background-color: transparent; color: light-dark(rgb(0, 0, 0), rgb(255, 255, 255));&quot;&gt;Aggregations&lt;/span&gt;&lt;/li&gt;&lt;li&gt;Business Logic&lt;/li&gt;&lt;/ul&gt;&lt;div&gt;&lt;b&gt;Data Model:&lt;/b&gt;&amp;nbsp;&lt;br&gt;&lt;/div&gt;&lt;/div&gt;&lt;/div&gt;&lt;/div&gt;&lt;div&gt;&lt;ul&gt;&lt;li&gt;Star Schema&lt;/li&gt;&lt;li&gt;Flat Table&lt;/li&gt;&lt;li&gt;Aggregated Table&lt;/li&gt;&lt;/ul&gt;&lt;/div&gt;&lt;div&gt;&lt;br&gt;&lt;/div&gt;" style="text;html=1;align=left;verticalAlign=middle;whiteSpace=wrap;rounded=0;fontSize=9;" vertex="1" parent="Wjpyw6OpbL5yYt4mKxYh-20">
          <mxGeometry x="5.379310344827586" y="236.46578947368423" width="116.55172413793103" height="73.68947368421053" as="geometry" />
        </mxCell>
        <mxCell id="Wjpyw6OpbL5yYt4mKxYh-23" value="" style="group" vertex="1" connectable="0" parent="1">
          <mxGeometry x="254" y="170" width="130" height="380" as="geometry" />
        </mxCell>
        <mxCell id="Wjpyw6OpbL5yYt4mKxYh-11" value="" style="rounded=0;whiteSpace=wrap;html=1;fillColor=none;strokeColor=#d79b00;fontSize=18;" vertex="1" parent="Wjpyw6OpbL5yYt4mKxYh-23">
          <mxGeometry y="20" width="129" height="360" as="geometry" />
        </mxCell>
        <mxCell id="Wjpyw6OpbL5yYt4mKxYh-33" value="" style="html=1;verticalLabelPosition=bottom;align=center;labelBackgroundColor=#ffffff;verticalAlign=top;strokeWidth=2;strokeColor=#d79b00;shadow=0;dashed=0;shape=mxgraph.ios7.icons.data;fillColor=#ffe6cc;" vertex="1" parent="Wjpyw6OpbL5yYt4mKxYh-23">
          <mxGeometry x="40" y="120" width="50" height="60" as="geometry" />
        </mxCell>
        <mxCell id="Wjpyw6OpbL5yYt4mKxYh-36" value="" style="shape=singleArrow;whiteSpace=wrap;html=1;fillColor=#dae8fc;gradientColor=#7ea6e0;strokeColor=#6c8ebf;" vertex="1" parent="Wjpyw6OpbL5yYt4mKxYh-23">
          <mxGeometry x="-54" y="135" width="40" height="30" as="geometry" />
        </mxCell>
        <mxCell id="Wjpyw6OpbL5yYt4mKxYh-47" value="&lt;font style=&quot;font-size: 11px;&quot;&gt;Raw Data&lt;/font&gt;" style="text;html=1;align=center;verticalAlign=middle;whiteSpace=wrap;rounded=0;" vertex="1" parent="Wjpyw6OpbL5yYt4mKxYh-23">
          <mxGeometry x="35" y="175" width="60" height="30" as="geometry" />
        </mxCell>
        <mxCell id="Wjpyw6OpbL5yYt4mKxYh-50" value="" style="endArrow=none;html=1;rounded=0;exitX=0.083;exitY=0.659;exitDx=0;exitDy=0;exitPerimeter=0;entryX=0.917;entryY=0.708;entryDx=0;entryDy=0;entryPerimeter=0;fillColor=#ffcd28;gradientColor=#ffa500;strokeColor=#d79b00;" edge="1" parent="Wjpyw6OpbL5yYt4mKxYh-23">
          <mxGeometry width="50" height="50" relative="1" as="geometry">
            <mxPoint x="17.500000000000057" y="200.00000000000006" as="sourcePoint" />
            <mxPoint x="112.5" y="200.08999999999997" as="targetPoint" />
          </mxGeometry>
        </mxCell>
        <mxCell id="Wjpyw6OpbL5yYt4mKxYh-64" value="&lt;b&gt;Object Type: &lt;/b&gt;Tables&lt;div&gt;&lt;br&gt;&lt;div&gt;&lt;b&gt;Load:&lt;/b&gt;&amp;nbsp;&lt;/div&gt;&lt;div&gt;&lt;ul&gt;&lt;li&gt;Batch Processing&lt;/li&gt;&lt;li&gt;Full Load&lt;/li&gt;&lt;li&gt;Truncate and Insert&lt;/li&gt;&lt;/ul&gt;&lt;div&gt;No &lt;b&gt;Transformations&lt;/b&gt;&lt;/div&gt;&lt;div&gt;&lt;b&gt;&lt;br&gt;&lt;/b&gt;&lt;/div&gt;&lt;div&gt;&lt;b&gt;Data Model: &lt;/b&gt;None (AS-IS)&lt;/div&gt;&lt;div&gt;&lt;br&gt;&lt;/div&gt;&lt;/div&gt;&lt;/div&gt;" style="text;html=1;align=left;verticalAlign=middle;whiteSpace=wrap;rounded=0;fontSize=9;" vertex="1" parent="Wjpyw6OpbL5yYt4mKxYh-23">
          <mxGeometry y="230" width="130" height="78" as="geometry" />
        </mxCell>
        <mxCell id="Wjpyw6OpbL5yYt4mKxYh-38" value="" style="shape=singleArrow;whiteSpace=wrap;html=1;fillColor=#dae8fc;gradientColor=#7ea6e0;strokeColor=#6c8ebf;" vertex="1" parent="1">
          <mxGeometry x="711" y="305" width="40" height="30" as="geometry" />
        </mxCell>
        <mxCell id="Wjpyw6OpbL5yYt4mKxYh-46" value="" style="shape=singleArrow;whiteSpace=wrap;html=1;fillColor=#dae8fc;gradientColor=#7ea6e0;strokeColor=#6c8ebf;" vertex="1" parent="1">
          <mxGeometry x="383.5" y="305" width="30" height="30" as="geometry" />
        </mxCell>
        <mxCell id="Wjpyw6OpbL5yYt4mKxYh-73" value="&lt;font style=&quot;font-size: 10px;&quot;&gt;&lt;b&gt;BI &amp;amp; Reporting&lt;/b&gt;&lt;/font&gt;" style="image;aspect=fixed;html=1;points=[];align=center;fontSize=12;image=img/lib/azure2/power_platform/PowerBI.svg;" vertex="1" parent="1">
          <mxGeometry x="796" y="195" width="30" height="40" as="geometry" />
        </mxCell>
        <mxCell id="Wjpyw6OpbL5yYt4mKxYh-74" value="&lt;font style=&quot;font-size: 10px;&quot;&gt;&lt;b&gt;&amp;nbsp; &amp;nbsp; &amp;nbsp; &amp;nbsp; AD Hoc SQL Queries&lt;/b&gt;&lt;/font&gt;" style="sketch=0;points=[[0,0,0],[0.25,0,0],[0.5,0,0],[0.75,0,0],[1,0,0],[0,1,0],[0.25,1,0],[0.5,1,0],[0.75,1,0],[1,1,0],[0,0.25,0],[0,0.5,0],[0,0.75,0],[1,0.25,0],[1,0.5,0],[1,0.75,0]];outlineConnect=0;fontColor=#232F3E;fillColor=#8C4FFF;strokeColor=#ffffff;dashed=0;verticalLabelPosition=bottom;verticalAlign=top;align=center;html=1;fontSize=12;fontStyle=0;aspect=fixed;shape=mxgraph.aws4.resourceIcon;resIcon=mxgraph.aws4.sql_workbench;" vertex="1" parent="1">
          <mxGeometry x="794" y="320" width="34" height="34" as="geometry" />
        </mxCell>
        <mxCell id="Wjpyw6OpbL5yYt4mKxYh-76" value="" style="points=[];aspect=fixed;html=1;align=center;shadow=0;dashed=0;fillColor=#FF6A00;strokeColor=none;shape=mxgraph.alibaba_cloud.machine_learning;" vertex="1" parent="1">
          <mxGeometry x="787" y="434" width="49.8" height="50.099999999999994" as="geometry" />
        </mxCell>
        <mxCell id="Wjpyw6OpbL5yYt4mKxYh-78" value="&lt;b&gt;&lt;font style=&quot;font-size: 10px;&quot;&gt;Machine Learning&lt;/font&gt;&lt;/b&gt;" style="text;html=1;align=center;verticalAlign=middle;whiteSpace=wrap;rounded=0;" vertex="1" parent="1">
          <mxGeometry x="767.5" y="474" width="101" height="30" as="geometry" />
        </mxCell>
        <mxCell id="Wjpyw6OpbL5yYt4mKxYh-79" value="Gold Layer" style="rounded=0;whiteSpace=wrap;html=1;fillColor=#fff2cc;strokeColor=#d6b656;fontSize=18;gradientColor=#ffd966;" vertex="1" parent="1">
          <mxGeometry x="570" y="170" width="130" height="20" as="geometry" />
        </mxCell>
        <mxCell id="Wjpyw6OpbL5yYt4mKxYh-81" value="Bronze Layer" style="rounded=0;whiteSpace=wrap;html=1;fillColor=#ffcd28;strokeColor=#d79b00;fontSize=18;gradientColor=#ffa500;" vertex="1" parent="1">
          <mxGeometry x="253" y="170" width="130" height="20" as="geometry" />
        </mxCell>
        <mxCell id="Wjpyw6OpbL5yYt4mKxYh-83" value="" style="sketch=0;pointerEvents=1;shadow=0;dashed=0;html=1;strokeColor=none;fillColor=#005F4B;labelPosition=center;verticalLabelPosition=bottom;verticalAlign=top;align=center;outlineConnect=0;shape=mxgraph.veeam2.sql_server;" vertex="1" parent="1">
          <mxGeometry x="240" y="98" width="50" height="52" as="geometry" />
        </mxCell>
      </root>
    </mxGraphModel>
  </diagram>
</mxfile>
